<svg viewBox="8.72972972972973 -2.7639999999999993 86.48648648648648 101.25" version="1.1" xmlns="http://www.w3.org/2000/svg" style="max-height: 500px" width="86.48648648648648" height="101.25">
 <path d="m25.469 77.691c-1.8984 0-3.6758-0.95312-4.7227-2.5391-1.0508-1.5859-1.2305-3.5938-0.48438-5.3438l4.25-10c0.74219-1.6055 2.1172-2.832 3.7969-3.3867 1.6797-0.55859 3.5156-0.39453 5.0703 0.44922l0.67188 0.35938c1.5469 0.83984 2.6836 2.2812 3.1367 3.9805 0.45703 1.7031 0.19531 3.5156-0.72656 5.0195l-6.3594 9c-1.0508 1.5273-2.7773 2.4453-4.6328 2.4609zm4.8711-18.57c-0.36328-0.003906-0.72656 0.054687-1.0703 0.16797-0.87891 0.29297-1.6016 0.93359-2 1.7695l-4.2695 9.9414c-0.54297 1.2695-0.023438 2.7383 1.1914 3.3906 1.1836 0.63672 2.6602 0.28906 3.4375-0.8125l6.3711-8.957c0.46094-0.80469 0.58203-1.7578 0.32812-2.6484s-0.85547-1.6406-1.668-2.082l-0.66016-0.35938c-0.51172-0.27344-1.082-0.41797-1.6602-0.41016z"/>
 <path d="m65.129 54.172h-30.258c-6.793-0.007813-12.301-5.5078-12.312-12.301v-12.543c0.007812-6.1836 2.4688-12.113 6.8438-16.484 4.375-4.375 10.301-6.8359 16.488-6.8438h8.2109c6.1836 0.003906 12.117 2.4648 16.492 6.8398 4.375 4.3711 6.8398 10.305 6.8477 16.488v12.543c-0.011718 6.793-5.5195 12.293-12.312 12.301zm-19.238-45.172c-5.3906 0.003906-10.559 2.1484-14.371 5.9609s-5.9531 8.9805-5.9609 14.367v12.543c0.011718 5.1328 4.1758 9.293 9.3125 9.3008h30.258c5.1367-0.007813 9.3008-4.168 9.3125-9.3008v-12.543c-0.007812-5.3906-2.1562-10.559-5.9688-14.367-3.8125-3.8125-8.9805-5.957-14.371-5.9609z"/>
 <path d="m63.641 46.539h-27.301c-1.8398 0-3.6055-0.73047-4.9062-2.0312-1.3008-1.3008-2.0352-3.0664-2.0352-4.9062v-8.832c0.011718-7.7852 6.3242-14.094 14.113-14.098h13c7.7812 0.007813 14.086 6.3164 14.098 14.098v8.832c-0.03125 3.8281-3.1367 6.9219-6.9688 6.9375zm-20.129-26.867c-6.1328 0.003906-11.102 4.9688-11.113 11.098v8.832c0.035156 2.1602 1.7773 3.9062 3.9414 3.9375h27.301c2.1836 0 3.9648-1.7539 4-3.9375v-8.832c-0.007813-6.1289-4.9727-11.094-11.102-11.098z"/>
 <path d="m42 30.09c0 2.0664-3.1016 2.0664-3.1016 0s3.1016-2.0664 3.1016 0z"/>
 <path d="m40.449 33.141c-1.2383 0.019531-2.3633-0.71094-2.8516-1.8477-0.48828-1.1367-0.24219-2.457 0.62891-3.3398 0.86719-0.88281 2.1836-1.1562 3.3281-0.68359 1.1484 0.46875 1.8945 1.582 1.8945 2.8203-0.003907 1.6641-1.3359 3.0156-3 3.0508zm0-3.1016v0.050782-0.089844z"/>
 <path d="m60.52 30.09c0 2.0664-3.0977 2.0664-3.0977 0s3.0977-2.0664 3.0977 0z"/>
 <path d="m59 33.141c-1.2383 0.019531-2.3672-0.71094-2.8516-1.8477-0.48828-1.1367-0.24219-2.457 0.62891-3.3398 0.86719-0.88281 2.1836-1.1562 3.3281-0.68359 1.1445 0.46875 1.8945 1.582 1.8945 2.8203 0.011719 0.80469-0.29688 1.582-0.85938 2.1523-0.56641 0.57422-1.3359 0.89844-2.1406 0.89844zm0-3.1406 0.050781 0.050781c0-0.027343-0.023437-0.050781-0.050781-0.050781z"/>
 <path d="m46.059 36.609h7.8789v1.6211h0.003906c0 1.2812-1.0391 2.3203-2.3203 2.3203h-3.2422c-1.2812 0-2.3203-1.0391-2.3203-2.3203z"/>
 <path d="m51.621 42.051h-3.2422c-2.1094 0-3.8203-1.7109-3.8203-3.8203v-1.6211c0-0.82812 0.67188-1.5 1.5-1.5h7.8828c0.82812 0 1.5 0.67188 1.5 1.5v1.6211c0 1.0117-0.40234 1.9844-1.1211 2.6992-0.71484 0.71875-1.6875 1.1211-2.6992 1.1211zm-4.0586-3.9414v0.12109h-0.003906c0 0.45312 0.36719 0.82031 0.82031 0.82031h3.2422c0.21484 0 0.42578-0.085937 0.57812-0.24219 0.15625-0.15234 0.24219-0.35938 0.24219-0.57812v-0.12109z"/>
 <path d="m24.059 40.078h-2.4883c-2.6992 0-4.8906-2.1875-4.8906-4.8867v-4.8906c0-2.7031 2.1875-4.8945 4.8906-4.9023h2.4883c0.82812 0 1.5 0.67187 1.5 1.5 0 0.82812-0.67188 1.5-1.5 1.5h-2.4883c-1.0469 0.007812-1.8906 0.85547-1.8906 1.9023v4.8906c0 1.043 0.84766 1.8867 1.8906 1.8867h2.4883c0.82812 0 1.5 0.67188 1.5 1.5 0 0.83203-0.67188 1.5-1.5 1.5z"/>
 <path d="m78.43 40.078h-2.4883c-0.82812 0-1.5-0.66797-1.5-1.5 0-0.82812 0.67188-1.5 1.5-1.5h2.4883c1.043 0 1.8906-0.84375 1.8906-1.8867v-4.8906c0-1.0469-0.84375-1.8945-1.8906-1.9023h-2.4883c-0.82812 0-1.5-0.67188-1.5-1.5 0-0.82813 0.67188-1.5 1.5-1.5h2.4883c2.7031 0.007812 4.8906 2.1992 4.8906 4.9023v4.8906c0 2.6992-2.1914 4.8867-4.8906 4.8867z"/>
 <path d="m74.531 77.691c-1.8438 0-3.5703-0.89453-4.6328-2.4023l-6.3086-8.9414v0.003906c-0.96875-1.5195-1.2539-3.3711-0.78906-5.1133 0.44531-1.7109 1.5859-3.1641 3.1484-4l0.67188-0.35938c1.5352-0.82422 3.3398-0.99219 5-0.45703 1.6719 0.53516 3.0508 1.7461 3.8008 3.3398l4.2812 10h-0.003906c1.1875 2.6875 0.10938 5.8398-2.4805 7.2383-0.82422 0.44922-1.75 0.6875-2.6875 0.69141zm-4.8711-18.57c-0.56641 0-1.1211 0.14062-1.6211 0.41016l-0.66016 0.35938c-0.82812 0.44531-1.4336 1.2148-1.6758 2.1211-0.24609 0.91016-0.10547 1.8789 0.38672 2.6797l6.2617 8.8711v-0.003906c0.77734 1.1016 2.25 1.4492 3.4375 0.8125 1.2148-0.64453 1.7383-2.1055 1.2109-3.3711l-4.2695-10c-0.40234-0.82422-1.125-1.4453-2-1.7188-0.34766-0.11328-0.70703-0.16797-1.0703-0.16016z"/>
 <path d="m51.34 94h-0.33984-2c-11.441 0.23828-16-11.352-16.75-17.559l-1.3789-6.6094v-0.003906c-0.11328-0.39844-0.054688-0.82812 0.16016-1.1836s0.57031-0.60547 0.97656-0.69141c0.40625-0.082031 0.83203 0.003906 1.1719 0.24609 0.33984 0.23828 0.5625 0.60938 0.62109 1.0195l1.3984 6.6602c-0.003907 0.039063-0.003907 0.082032 0 0.12109 0.070312 0.62109 2.0508 15 13.441 15h0.28125 2.1211 0.28125c11.391 0 13.371-14.379 13.441-15h-0.003906c0.003906-0.039062 0.003906-0.082031 0-0.12109l1.3984-6.6602c0.054688-0.41016 0.28125-0.78125 0.62109-1.0195 0.33984-0.24219 0.76172-0.32812 1.1719-0.24609 0.40625 0.085937 0.75781 0.33594 0.97656 0.69141 0.21484 0.35547 0.27344 0.78516 0.16016 1.1836l-1.3789 6.6094c-0.71094 6.1523-5.1797 17.562-16.371 17.562z"/>
 <path d="m50 77.691c-2.3867 0-4.5391-1.4375-5.4492-3.6445-0.91406-2.2031-0.41016-4.7422 1.2773-6.4297s4.2266-2.1914 6.4297-1.2773c2.2031 0.91406 3.6406 3.0625 3.6406 5.4492-0.003907 3.2578-2.6406 5.8945-5.8984 5.9023zm0-8.7891v-0.003906c-1.1758 0-2.2305 0.71094-2.6797 1.793-0.44922 1.0859-0.19922 2.3359 0.63281 3.1641s2.082 1.0742 3.1641 0.62109c1.082-0.45312 1.7852-1.5117 1.7812-2.6875-0.003907-1.5977-1.3008-2.8906-2.8984-2.8906z"/>
<text fill="#000000" font-family="Arbeit Regular, Helvetica, Arial-Unicode, Arial, Sans-serif" font-weight="bold" font-size="5.0" y="117.5" x="0.0">Created by Muhamad Syabdah Alamsyah</text><text fill="#000000" font-family="Arbeit Regular, Helvetica, Arial-Unicode, Arial, Sans-serif" font-weight="bold" font-size="5.0" y="122.5" x="0.0">from Noun Project</text></svg>